<svg xmlns="http://www.w3.org/2000/svg" xmlns:xlink="http://www.w3.org/1999/xlink"><defs><clipPath id="a"><path fill="#fff" d="M0 0h18v20H0z"/></clipPath><clipPath id="a"><path fill="#fff" d="M0 0h23v22H0z"/></clipPath></defs><symbol id="icon-bike"><path d="M19.703 21.875a4.806 4.806 0 0 1-2.595-.757 4.535 4.535 0 0 1-1.721-2.016 4.333 4.333 0 0 1-.266-2.596 4.441 4.441 0 0 1 1.279-2.3 4.733 4.733 0 0 1 2.392-1.23 4.846 4.846 0 0 1 2.699.257c.854.34 1.583.915 2.097 1.654a4.37 4.37 0 0 1 .787 2.496 4.411 4.411 0 0 1-1.37 3.175 4.773 4.773 0 0 1-3.302 1.317Zm0-7.422c-.602 0-1.192.172-1.693.494-.5.322-.891.78-1.122 1.315a2.825 2.825 0 0 0-.173 1.692c.117.569.407 1.09.834 1.5.426.41.969.69 1.56.802a3.161 3.161 0 0 0 1.76-.166 3.024 3.024 0 0 0 1.367-1.08 2.85 2.85 0 0 0 .514-1.627c0-.777-.322-1.522-.893-2.07a3.114 3.114 0 0 0-2.154-.86ZM6.297 21.875a4.806 4.806 0 0 1-2.596-.757 4.535 4.535 0 0 1-1.72-2.016 4.332 4.332 0 0 1-.266-2.596 4.441 4.441 0 0 1 1.278-2.3 4.733 4.733 0 0 1 2.392-1.23 4.846 4.846 0 0 1 2.7.257c.853.34 1.583.915 2.096 1.654a4.37 4.37 0 0 1 .788 2.496 4.411 4.411 0 0 1-1.37 3.175 4.773 4.773 0 0 1-3.302 1.317Zm0-7.422c-.603 0-1.192.172-1.693.494-.5.322-.891.78-1.122 1.315a2.825 2.825 0 0 0-.173 1.692c.117.569.407 1.09.833 1.5.427.41.97.69 1.56.802a3.161 3.161 0 0 0 1.76-.166 3.025 3.025 0 0 0 1.368-1.08 2.85 2.85 0 0 0 .514-1.627c-.001-.777-.322-1.522-.894-2.07a3.113 3.113 0 0 0-2.153-.86ZM16.25 6.25c.214 0 .426-.04.624-.118.198-.078.378-.194.529-.34.15-.145.27-.319.351-.51.081-.19.122-.394.121-.6a1.49 1.49 0 0 0-.118-.597c-.08-.19-.199-.362-.35-.507-.15-.145-.329-.26-.526-.338a1.659 1.659 0 0 0-.62-.115c-.214 0-.426.04-.623.117a1.63 1.63 0 0 0-.528.337 1.56 1.56 0 0 0-.354.506 1.511 1.511 0 0 0 .346 1.704 1.681 1.681 0 0 0 1.148.461Z"/><path d="M18.665 9.375h-2.223a.209.209 0 0 1-.103-.027.199.199 0 0 1-.075-.075l-1.612-2.84a1.532 1.532 0 0 0-.477-.532 1.634 1.634 0 0 0-1.405-.212 1.587 1.587 0 0 0-.625.366L8.597 9.492a1.56 1.56 0 0 0-.472 1.094c0 .85.64 1.152.94 1.323 1.447.802 2.466 1.388 3.025 1.714a.19.19 0 0 1 .098.166v3.376c0 .42.336.78.773.802a.843.843 0 0 0 .6-.215.78.78 0 0 0 .252-.564v-4.2a.756.756 0 0 0-.09-.356.79.79 0 0 0-.249-.278l-1.879-1.3a.198.198 0 0 1-.084-.14.188.188 0 0 1 .055-.153l2.133-2.187a.203.203 0 0 1 .173-.06.208.208 0 0 1 .153.099l1.108 1.923c.07.122.173.223.298.294.125.07.268.108.413.107h2.844a.839.839 0 0 0 .588-.241.776.776 0 0 0 .224-.577c-.021-.42-.398-.744-.835-.744Z"/></symbol><symbol id="icon-bus"><g clip-path="url(#a)"><path d="M4.501 13.571c0-.394-.146-.73-.44-1.01a1.481 1.481 0 0 0-1.06-.418c-.413 0-.767.14-1.06.418-.292.28-.439.616-.439 1.01 0 .395.147.732.44 1.01.292.28.646.419 1.06.419.414 0 .767-.14 1.06-.418.293-.28.439-.616.439-1.01Zm11.995 0c0-.394-.146-.73-.44-1.01a1.481 1.481 0 0 0-1.06-.418c-.413 0-.767.14-1.06.418-.292.28-.439.616-.439 1.01 0 .395.147.732.44 1.01.292.28.646.419 1.06.419.414 0 .767-.14 1.06-.418.293-.28.439-.616.439-1.01Zm-.539-4.42-.843-4.285a.744.744 0 0 0-.738-.58H3.622a.744.744 0 0 0-.738.58l-.843 4.286a.682.682 0 0 0 .164.591c.148.171.34.257.574.257h12.44a.725.725 0 0 0 .574-.257.682.682 0 0 0 .164-.591Zm-2.647-6.83a.504.504 0 0 0-.164-.379.556.556 0 0 0-.398-.156H5.25a.556.556 0 0 0-.399.156.505.505 0 0 0-.164.38c0 .148.055.275.164.379.11.104.242.156.399.156h7.497a.556.556 0 0 0 .398-.156.504.504 0 0 0 .164-.38Zm4.685 8.092v6.73h-1.499v1.428c0 .395-.146.731-.44 1.01a1.481 1.481 0 0 1-1.06.419c-.413 0-.767-.14-1.06-.419a1.345 1.345 0 0 1-.439-1.01v-1.428H4.501v1.428c0 .395-.146.731-.44 1.01a1.481 1.481 0 0 1-1.06.419c-.413 0-.767-.14-1.06-.419a1.345 1.345 0 0 1-.439-1.01v-1.428h-1.5v-6.73c0-.833.098-1.663.294-2.489l1.206-5.067c.07-.58.451-1.09 1.142-1.529C3.335.89 4.234.558 5.34.335 6.444.112 7.664 0 8.999 0s2.556.112 3.66.335c1.106.223 2.004.554 2.695.993.691.44 1.072.949 1.142 1.53l1.23 5.066c.18.759.27 1.589.27 2.489Z"/></g></symbol><symbol id="icon-heart"><path clip-rule="evenodd" d="m10 7.124 1.117-2.348c.278-.582.76-1.418 1.44-2.095.67-.665 1.473-1.118 2.443-1.118 2.095 0 3.75 1.74 3.75 3.834 0 1.59-.692 2.712-2.335 4.424-.421.439-.901.912-1.432 1.435-1.386 1.365-3.108 3.064-4.983 5.336-1.875-2.272-3.598-3.97-4.982-5.336a74.167 74.167 0 0 1-1.433-1.435C1.942 8.11 1.25 6.987 1.25 5.397c0-2.093 1.655-3.834 3.75-3.834.97 0 1.772.453 2.442 1.118.682.677 1.163 1.513 1.44 2.095L10 7.124Zm.49 10.887a.645.645 0 0 1-.22.176.615.615 0 0 1-.76-.176c-2.001-2.497-3.813-4.283-5.304-5.752C1.625 9.713 0 8.113 0 5.397 0 2.554 2.237.25 5 .25c2 0 3.399 1.379 4.255 2.636.325.48.572.94.745 1.303.216-.454.465-.89.745-1.303C11.601 1.627 13 .25 15 .25c2.762 0 5 2.304 5 5.147 0 2.716-1.625 4.316-4.206 6.862-1.492 1.47-3.303 3.256-5.304 5.75v.002Z"/></symbol><symbol id="icon-mail"><path fill-rule="evenodd" clip-rule="evenodd" d="M32.279 20.933 23.618 13l8.66-7.933-1.18-1.262L18.5 15.344 5.902 3.805l-1.18 1.262L13.381 13l-8.66 7.933 1.18 1.262 8.76-8.023 3.838 3.515 3.838-3.515 8.76 8.023 1.18-1.262ZM3.152.5C1.534.5.222 1.898.222 3.616v18.768c0 1.721 1.301 3.116 2.93 3.116h30.696c1.618 0 2.93-1.398 2.93-3.116V3.616c0-1.721-1.301-3.116-2.93-3.116H3.152Z"/></symbol><symbol id="icon-phone"><path fill-rule="evenodd" clip-rule="evenodd" d="M18 2.172c-5.593 0-11.2.946-13.233 2.83-1.688 1.563-2.25 4.325-2.44 6.073 0 0-.027.173-.027.247 0 .686.589 1.236 1.309 1.236.085 0 3.231-.241 5.128-.39.046-.006.092-.012.137-.024.707-.018 1.276-.562 1.276-1.236l.007-2.434c0-.754.647-1.36 1.445-1.36h12.795c.799 0 1.447.606 1.447 1.36l.006 2.434c0 .674.57 1.218 1.276 1.236.045.012.091.018.137.025 1.897.148 5.044.389 5.128.389.72 0 1.309-.55 1.309-1.236 0-.074-.026-.247-.026-.247-.19-1.748-.752-4.51-2.44-6.073C29.2 3.118 23.593 2.172 18 2.172Zm0 16.063c-1.446 0-2.617 1.106-2.617 2.472 0 1.365 1.171 2.47 2.617 2.47s2.617-1.105 2.617-2.47c0-1.366-1.171-2.472-2.617-2.472Zm-1.962-5.56v-1.544c0-.853-.733-1.545-1.636-1.545-.902 0-1.635.692-1.635 1.545v1.544l-8.825 8.903a3.008 3.008 0 0 0-.988 2.212v2.477c0 1.366 1.171 2.471 2.617 2.471h.654v1.545c0 .852.733 1.544 1.636 1.544.902 0 1.635-.692 1.635-1.544v-1.545h17.008v1.545c0 .852.733 1.544 1.636 1.544.902 0 1.635-.692 1.635-1.544v-1.545h.654c1.446 0 2.616-1.105 2.616-2.47V23.79c0-.866-.379-1.65-.987-2.212l-8.825-8.903v-1.544c0-.853-.733-1.545-1.635-1.545-.903 0-1.635.692-1.635 1.545v1.544h-3.925ZM18 15.765c2.891 0 5.233 2.211 5.233 4.942 0 2.73-2.341 4.942-5.233 4.942-2.891 0-5.233-2.212-5.233-4.942 0-2.731 2.342-4.943 5.233-4.943Z"/></symbol><symbol id="icon-plane"><g clip-path="url(#a)"><path d="M18.535 1.18c-.805.18-1.613.362-1.914.859l-2.327 4.373L1.8 9.214l-.506 1.398 9.561.853-1.622 3.786-3.626.813-.91 1.488 2.616.268.298 1.217c.134.431.603.72 1.003.63l1.209-.271 1.4 2.253.911-1.488-.895-3.65 2.626-3.157 5.01 8.293 1.01-1.081L16.8 7.989l2.831-4.058c.305-.497.106-1.307-.093-2.121-.099-.403-.603-.72-1.003-.63Z"/></g></symbol><symbol id="icon-run"><path d="M16.188 6c1.045 0 1.891-.895 1.891-2s-.846-2-1.89-2c-1.045 0-1.892.895-1.892 2s.847 2 1.891 2ZM15.032 10.969c.217.342.528.605.892.754a1.8 1.8 0 0 0 1.139.076l3.135-.829-.457-1.94-3.135.829-1.304-2.067a1.9 1.9 0 0 0-1.202-.854l-3.636-.77a1.797 1.797 0 0 0-1.202.164c-.373.193-.675.51-.86.903l-1.568 3.316 1.691.895 1.568-3.317 1.86.394L7.144 17H2.952v2h4.192c.66 0 1.281-.372 1.622-.971l1.813-3.196 4.887 1.034 1.717 5.449 1.793-.633-1.716-5.448a2.019 2.019 0 0 0-.544-.867 1.86 1.86 0 0 0-.88-.463l-2.874-.607 1.676-2.954.394.625Z"/></symbol></svg>