<svg xmlns="http://www.w3.org/2000/svg" xmlns:xlink="http://www.w3.org/1999/xlink"><symbol id="icon-breadcrumbs" viewBox="0 0 6 10"><g fill="none">
<path d="M5.53135 5.23535L1.03135 9.73535L0.225098 8.9291L3.9376 5.23535L0.243847 1.5416L1.0501 0.735352L5.53135 5.23535Z" fill="white"/>
</g></symbol><symbol id="icon-burger" viewBox="0 0 12 8"><g fill="none">
<path d="M0.666668 0H11.3333V1.33333H0.666668V0ZM3.33333 3.33333H11.3333V4.66667H3.33333V3.33333ZM6.66667 6.66667H11.3333V8H6.66667V6.66667Z" fill="white"/>
</g></symbol><symbol id="icon-close" viewBox="0 0 24 24"><g fill="none">
<path fill-rule="evenodd" clip-rule="evenodd" d="M18.7071 5.29289C19.0976 5.68342 19.0976 6.31658 18.7071 6.70711L6.70711 18.7071C6.31658 19.0976 5.68342 19.0976 5.29289 18.7071C4.90237 18.3166 4.90237 17.6834 5.29289 17.2929L17.2929 5.29289C17.6834 4.90237 18.3166 4.90237 18.7071 5.29289Z" fill="currentColor"/>
<path fill-rule="evenodd" clip-rule="evenodd" d="M5.29289 5.29289C5.68342 4.90237 6.31658 4.90237 6.70711 5.29289L18.7071 17.2929C19.0976 17.6834 19.0976 18.3166 18.7071 18.7071C18.3166 19.0976 17.6834 19.0976 17.2929 18.7071L5.29289 6.70711C4.90237 6.31658 4.90237 5.68342 5.29289 5.29289Z" fill="currentColor"/>
</g></symbol><symbol id="icon-fb" viewBox="0 0 12 21"><g fill="none">
<path d="M3.88281 20.1627V11.0391H0.8125V7.48339H3.88281V4.86119C3.88281 1.81813 5.7414 0.161133 8.45602 0.161133C9.75634 0.161133 10.8739 0.257945 11.1996 0.301217V3.48139L9.31687 3.48224C7.84051 3.48224 7.55465 4.18378 7.55465 5.21325V7.48339H11.0756L10.6172 11.0391H7.55464V20.1627H3.88281Z" fill="white"/>
</g></symbol><symbol id="icon-git" viewBox="0 0 22 22"><g fill="none">
<path fill-rule="evenodd" clip-rule="evenodd" d="M11.001 0.677734C5.10161 0.677734 0.355469 5.42387 0.355469 11.3233C0.355469 16.0251 3.41606 20.0171 7.62992 21.4365C8.1622 21.5253 8.33962 21.2148 8.33962 20.9043C8.33962 20.6381 8.33962 19.9728 8.33962 19.0856C5.36774 19.751 4.74675 17.6662 4.74675 17.6662C4.25883 16.4243 3.54913 16.1138 3.54913 16.1138C2.57329 15.4484 3.63784 15.4484 3.63784 15.4484C4.7024 15.5371 5.27903 16.5573 5.27903 16.5573C6.21052 18.1985 7.76299 17.7106 8.38398 17.4445C8.47269 16.7348 8.73883 16.2912 9.04933 16.0251C6.69844 15.7589 4.21448 14.8274 4.21448 10.7466C4.21448 9.59337 4.61368 8.61753 5.32339 7.90783C5.23467 7.64169 4.83547 6.57714 5.4121 5.06902C5.4121 5.06902 6.29923 4.80288 8.33962 6.17793C9.1824 5.95615 10.1139 5.82308 11.001 5.82308C11.8881 5.82308 12.8196 5.95615 13.6624 6.17793C15.7028 4.80288 16.5899 5.06902 16.5899 5.06902C17.1665 6.53278 16.8117 7.59734 16.6786 7.90783C17.344 8.66189 17.7875 9.59337 17.7875 10.7466C17.7875 14.8274 15.3036 15.7146 12.9083 15.9807C13.3075 16.2912 13.618 16.9565 13.618 17.9324C13.618 19.3518 13.618 20.5051 13.618 20.8599C13.618 21.126 13.7955 21.4809 14.3721 21.3922C18.586 20.0171 21.6465 16.0251 21.6465 11.3233C21.6465 5.42387 16.9004 0.677734 11.001 0.677734Z" fill="white"/>
</g></symbol><symbol id="icon-insta" viewBox="0 0 24 23"><g fill="none">
<path d="M11.9962 2.68308C14.9677 2.68308 15.3196 2.69421 16.4934 2.74773C17.1992 2.75637 17.8983 2.88597 18.5602 3.13089C19.0403 3.31603 19.4762 3.59963 19.8401 3.96345C20.2039 4.32727 20.4875 4.76323 20.6726 5.24329C20.9175 5.90526 21.0471 6.60433 21.0558 7.31011C21.1088 8.48395 21.1204 8.83584 21.1204 11.8073C21.1204 14.7787 21.1093 15.1306 21.0558 16.3045C21.0471 17.0103 20.9175 17.7093 20.6726 18.3713C20.4875 18.8514 20.2039 19.2873 19.8401 19.6511C19.4762 20.015 19.0403 20.2986 18.5602 20.4837C17.8983 20.7286 17.1992 20.8582 16.4934 20.8669C15.3201 20.9198 14.9682 20.9315 11.9962 20.9315C9.02424 20.9315 8.67235 20.9204 7.49903 20.8669C6.79325 20.8582 6.09418 20.7286 5.43221 20.4837C4.95216 20.2986 4.51619 20.015 4.15237 19.6511C3.78855 19.2873 3.50495 18.8514 3.31981 18.3713C3.07489 17.7093 2.94529 17.0103 2.93666 16.3045C2.88366 15.1306 2.872 14.7787 2.872 11.8073C2.872 8.83584 2.88313 8.48395 2.93666 7.31011C2.94529 6.60433 3.07489 5.90526 3.31981 5.24329C3.50495 4.76323 3.78855 4.32727 4.15237 3.96345C4.51619 3.59963 4.95216 3.31603 5.43221 3.13089C6.09418 2.88597 6.79325 2.75637 7.49903 2.74773C8.67288 2.69474 9.02477 2.68308 11.9962 2.68308ZM11.9962 0.677734C8.97548 0.677734 8.59497 0.690453 7.40788 0.744509C6.48419 0.762881 5.57031 0.937772 4.70511 1.26174C3.96291 1.54138 3.29066 1.9796 2.73527 2.54582C2.16854 3.10141 1.72995 3.77404 1.45014 4.51672C1.12617 5.38192 0.951274 6.2958 0.932902 7.21948C0.879906 8.40552 0.867188 8.78603 0.867188 11.8068C0.867188 14.8275 0.879906 15.208 0.933962 16.3951C0.952334 17.3188 1.12723 18.2327 1.4512 19.0979C1.7307 19.8404 2.16892 20.5131 2.73527 21.0688C3.29097 21.6351 3.96359 22.0733 4.70617 22.3528C5.57137 22.6768 6.48525 22.8517 7.40894 22.8701C8.59603 22.9231 8.97495 22.9369 11.9973 22.9369C15.0196 22.9369 15.3985 22.9241 16.5856 22.8701C17.5093 22.8517 18.4232 22.6768 19.2884 22.3528C20.0274 22.0664 20.6986 21.6288 21.2589 21.0681C21.8192 20.5075 22.2563 19.8361 22.5423 19.0968C22.8663 18.2316 23.0412 17.3177 23.0595 16.394C23.1125 15.208 23.1252 14.8275 23.1252 11.8068C23.1252 8.78603 23.1125 8.40552 23.0585 7.21842C23.0401 6.29474 22.8652 5.38086 22.5412 4.51566C22.2617 3.77308 21.8235 3.10046 21.2572 2.54476C20.7015 1.97841 20.0288 1.54019 19.2863 1.26068C18.4211 0.936712 17.5072 0.761821 16.5835 0.743449C15.3975 0.690453 15.017 0.677734 11.9962 0.677734Z" fill="white"/>
<path d="M12.0002 6.0918C10.8699 6.0918 9.76491 6.42698 8.82508 7.05495C7.88525 7.68293 7.15275 8.57549 6.72019 9.61977C6.28763 10.6641 6.17446 11.8132 6.39497 12.9218C6.61549 14.0304 7.15979 15.0487 7.95905 15.8479C8.75831 16.6472 9.77663 17.1915 10.8852 17.412C11.9938 17.6325 13.1429 17.5194 14.1872 17.0868C15.2315 16.6543 16.1241 15.9217 16.752 14.9819C17.38 14.0421 17.7152 12.9371 17.7152 11.8068C17.7152 10.2911 17.1131 8.83746 16.0413 7.76569C14.9695 6.69391 13.5159 6.0918 12.0002 6.0918ZM12.0002 15.5165C11.2665 15.5165 10.5492 15.2989 9.93919 14.8913C9.32914 14.4837 8.85366 13.9043 8.57289 13.2264C8.29211 12.5486 8.21865 11.8027 8.36178 11.0831C8.50492 10.3635 8.85824 9.70249 9.37704 9.18368C9.89585 8.66487 10.5569 8.31156 11.2765 8.16842C11.9961 8.02528 12.742 8.09875 13.4198 8.37952C14.0977 8.6603 14.677 9.13578 15.0847 9.74583C15.4923 10.3559 15.7099 11.0731 15.7099 11.8068C15.7099 12.7907 15.319 13.7343 14.6233 14.43C13.9276 15.1257 12.984 15.5165 12.0002 15.5165Z" fill="white"/>
<path d="M17.937 7.20124C18.6746 7.20124 19.2725 6.60332 19.2725 5.86576C19.2725 5.12819 18.6746 4.53027 17.937 4.53027C17.1995 4.53027 16.6016 5.12819 16.6016 5.86576C16.6016 6.60332 17.1995 7.20124 17.937 7.20124Z" fill="white"/>
</g></symbol><symbol id="icon-logo" viewBox="0 0 500 395"><g fill="none">
<path d="M164.992 20.2568H375.808L220.816 252.931H10L164.992 20.2568Z" fill="#19B5F1"/>
<path d="M174.224 274.495L114.192 364.616H335.008L490 131.941H327.024L232.064 274.495H174.224Z" fill="#CA6AEB"/>
</g></symbol><symbol id="icon-mark" viewBox="0 0 20 20"><g fill="none">
<path fill-rule="evenodd" clip-rule="evenodd" d="M10.2079 1.66699C13.9988 1.66699 17.0829 4.77449 17.0829 8.59449C17.0829 13.2903 11.7029 17.917 10.2079 17.917C8.71295 17.917 3.33295 13.2903 3.33295 8.59449C3.33295 4.77449 6.41711 1.66699 10.2079 1.66699ZM10.2079 2.91699C7.10628 2.91699 4.58295 5.46449 4.58295 8.59449C4.58295 12.577 9.26961 16.457 10.2079 16.6637C11.1463 16.4562 15.8329 12.5762 15.8329 8.59449C15.8329 5.46449 13.3096 2.91699 10.2079 2.91699ZM10.2088 5.83366C11.7021 5.83366 12.9171 7.04866 12.9171 8.54283C12.9171 10.0362 11.7021 11.2503 10.2088 11.2503C8.71545 11.2503 7.50045 10.0362 7.50045 8.54283C7.50045 7.04866 8.71545 5.83366 10.2088 5.83366ZM10.2088 7.08366C9.40461 7.08366 8.75045 7.73783 8.75045 8.54283C8.75045 9.34699 9.40461 10.0003 10.2088 10.0003C11.0129 10.0003 11.6671 9.34699 11.6671 8.54283C11.6671 7.73783 11.0129 7.08366 10.2088 7.08366Z" fill="#B0B0B2"/>
</g></symbol><symbol id="icon-message" viewBox="0 0 20 20"><g fill="none">
<path fill-rule="evenodd" clip-rule="evenodd" d="M13.8824 1.66699C16.6574 1.66699 18.7499 3.93116 18.7499 6.93366V12.657C18.7499 14.1937 18.2066 15.582 17.2191 16.567C16.3333 17.4495 15.1841 17.917 13.8958 17.917H5.68492C4.39909 17.917 3.25075 17.4503 2.36409 16.567C1.37659 15.582 0.833252 14.1937 0.833252 12.657V6.93366C0.833252 3.93116 2.92575 1.66699 5.70075 1.66699H13.8824ZM13.8824 2.91699H5.70075C3.60492 2.91699 2.08325 4.60616 2.08325 6.93366V12.657C2.08325 13.8595 2.49659 14.9337 3.24659 15.6812C3.89325 16.327 4.73742 16.667 5.68742 16.667H13.8824C13.8841 16.6653 13.8908 16.667 13.8958 16.667C14.8466 16.667 15.6899 16.327 16.3366 15.6812C17.0874 14.9337 17.4999 13.8595 17.4999 12.657V6.93366C17.4999 4.60616 15.9783 2.91699 13.8824 2.91699ZM15.1958 6.77433C15.4133 7.04183 15.3724 7.43516 15.1049 7.65349L11.4016 10.6635C10.9333 11.0352 10.3733 11.221 9.81409 11.221C9.25659 11.221 8.70075 11.0368 8.23575 10.6685L4.49825 7.65516C4.22909 7.43849 4.18742 7.04433 4.40325 6.77599C4.62075 6.50849 5.01409 6.46599 5.28242 6.68183L9.01658 9.69182C9.48575 10.0635 10.1466 10.0635 10.6191 9.68849L14.3158 6.68349C14.5841 6.46433 14.9774 6.50599 15.1958 6.77433Z" fill="currentColor"/>
</g></symbol><symbol id="icon-phone" viewBox="0 0 20 20"><g fill="none">
<path fill-rule="evenodd" clip-rule="evenodd" d="M5.5479 1.66744C6.47874 1.67994 7.14207 2.37744 7.98124 3.25994C8.18874 3.47744 8.4129 3.71494 8.66374 3.96494C9.87957 5.18161 9.53374 6.17411 9.25457 6.97078C8.95124 7.83994 8.68874 8.58994 10.2604 10.1616C11.8321 11.7333 12.5812 11.4708 13.4496 11.1649C14.2471 10.8866 15.2371 10.5383 16.4554 11.7549C16.7029 12.0024 16.9362 12.2241 17.1529 12.4299C18.0387 13.2733 18.7387 13.9391 18.7505 14.8724C18.7596 15.6674 18.2762 16.4791 17.0829 17.6724L16.5546 17.3141L17.0021 17.7499C16.7379 18.0208 16.0354 18.7424 14.6596 18.7508H14.6346C12.5579 18.7508 9.8504 17.0974 6.58707 13.8349C3.3104 10.5591 1.65457 7.84328 1.667 5.76244C1.67457 4.38744 2.3954 3.68328 2.66624 3.41911L2.68935 3.39386L2.7454 3.33744C3.94124 2.14161 4.7629 1.64994 5.5479 1.66744ZM5.53207 2.91744H5.5254C5.15119 2.91744 4.58288 3.29244 3.79026 4.06236L3.6311 4.21866L3.6329 4.21828C3.6329 4.21828 3.6193 4.23388 3.59612 4.25752L3.5404 4.31328C3.33874 4.50911 2.92124 4.91661 2.91703 5.76911C2.9104 6.96161 3.69457 9.17578 7.4704 12.9508C11.2279 16.7074 13.4387 17.5008 14.6346 17.5008H14.6521C15.5046 17.4958 15.9112 17.0783 16.1071 16.8774C16.1662 16.8166 16.2146 16.7708 16.2487 16.7433C17.0796 15.9074 17.5046 15.2866 17.5004 14.8874C17.4954 14.4808 16.9896 14.0008 16.2904 13.3349C16.0679 13.1241 15.8262 12.8933 15.5712 12.6383C14.9096 11.9791 14.5837 12.0916 13.8629 12.3449C12.8671 12.6941 11.5029 13.1724 9.37707 11.0449C7.2504 8.91911 7.72707 7.55494 8.07457 6.55828C8.32624 5.83828 8.44124 5.51078 7.7804 4.84911C7.52207 4.59078 7.28957 4.34578 7.0754 4.12078C6.41374 3.42578 5.93624 2.92328 5.53207 2.91744ZM12.7055 4.63203C14.4397 4.96869 15.7788 6.30703 16.1163 8.04203C16.1822 8.38203 15.9613 8.70953 15.623 8.77536C15.5822 8.78286 15.5422 8.78702 15.5022 8.78702C15.2088 8.78702 14.948 8.58036 14.8897 8.28203C14.6497 7.04869 13.6988 6.09786 12.4672 5.85869C12.128 5.79286 11.9072 5.46536 11.973 5.12619C12.0388 4.78703 12.3722 4.56536 12.7055 4.63203ZM12.6556 1.67219C16.0539 2.04969 18.6931 4.68553 19.0739 8.08303C19.1122 8.42636 18.8656 8.73553 18.5231 8.77386C18.4997 8.77636 18.4756 8.77803 18.4522 8.77803C18.1381 8.77803 17.8681 8.54219 17.8322 8.22303C17.5164 5.40969 15.3314 3.22636 12.5172 2.91386C12.1747 2.87553 11.9272 2.56719 11.9656 2.22386C12.0031 1.88136 12.3089 1.62886 12.6556 1.67219Z" fill="#B0B0B2"/>
</g></symbol><symbol id="icon-send" viewBox="0 0 17 17"><g fill="none">
<path d="M14.9569 2.38799C14.6234 2.04573 14.1299 1.91822 13.6697 2.05244L2.93866 5.17302C2.45313 5.3079 2.10899 5.69512 2.01629 6.18703C1.92158 6.68767 2.25238 7.32319 2.68456 7.58894L6.03993 9.65121C6.38407 9.8626 6.82826 9.80958 7.11304 9.52236L10.9553 5.6562C11.1487 5.45487 11.4688 5.45487 11.6622 5.6562C11.8556 5.85082 11.8556 6.16623 11.6622 6.36756L7.81333 10.2344C7.52788 10.5209 7.47452 10.9672 7.68461 11.3135L9.73478 14.7025C9.97488 15.1052 10.3884 15.3333 10.8419 15.3333C10.8953 15.3333 10.9553 15.3333 11.0086 15.3266C11.5288 15.2595 11.9423 14.9038 12.0957 14.4005L15.277 3.68319C15.4171 3.22685 15.2904 2.73024 14.9569 2.38799Z" fill="white"/>
</g></symbol><symbol id="icon-x" viewBox="0 0 20 15"><g fill="none">
<path d="M19.2009 1.84989C18.5125 2.15584 17.7859 2.34706 17.021 2.4618C17.7859 2.00287 18.3978 1.27623 18.6655 0.396615C17.9389 0.8173 17.1357 1.12325 16.2561 1.31447C15.5677 0.587835 14.5734 0.128906 13.5025 0.128906C11.4374 0.128906 9.75462 1.81165 9.75462 3.87683C9.75462 4.18278 9.79287 4.45049 9.86935 4.7182C6.77158 4.56522 3.97976 3.0737 2.1058 0.779056C1.79985 1.35272 1.60863 1.96462 1.60863 2.65302C1.60863 3.95332 2.25878 5.10064 3.29137 5.78903C2.67947 5.75079 2.1058 5.59781 1.57039 5.3301V5.36835C1.57039 7.20406 2.87069 8.73383 4.59167 9.07802C4.28572 9.15451 3.94152 9.19275 3.59732 9.19275C3.36786 9.19275 3.10015 9.15451 2.87069 9.11627C3.36786 10.6078 4.74465 11.7169 6.38914 11.7169C5.08884 12.7112 3.48259 13.3231 1.72336 13.3231C1.41741 13.3231 1.11146 13.3231 0.84375 13.2849C2.52649 14.3557 4.47694 14.9676 6.61861 14.9676C13.5408 14.9676 17.327 9.231 17.327 4.25927C17.327 4.10629 17.327 3.91507 17.327 3.76209C18.0536 3.26492 18.7037 2.61477 19.2009 1.84989Z" fill="white"/>
</g></symbol></svg>