<svg width="24" height="23" viewBox="0 0 24 23" fill="none" xmlns="http://www.w3.org/2000/svg">
<path d="M11.9962 2.68308C14.9677 2.68308 15.3196 2.69421 16.4934 2.74773C17.1992 2.75637 17.8983 2.88597 18.5602 3.13089C19.0403 3.31603 19.4762 3.59963 19.8401 3.96345C20.2039 4.32727 20.4875 4.76323 20.6726 5.24329C20.9175 5.90526 21.0471 6.60433 21.0558 7.31011C21.1088 8.48395 21.1204 8.83584 21.1204 11.8073C21.1204 14.7787 21.1093 15.1306 21.0558 16.3045C21.0471 17.0103 20.9175 17.7093 20.6726 18.3713C20.4875 18.8514 20.2039 19.2873 19.8401 19.6511C19.4762 20.015 19.0403 20.2986 18.5602 20.4837C17.8983 20.7286 17.1992 20.8582 16.4934 20.8669C15.3201 20.9198 14.9682 20.9315 11.9962 20.9315C9.02424 20.9315 8.67235 20.9204 7.49903 20.8669C6.79325 20.8582 6.09418 20.7286 5.43221 20.4837C4.95216 20.2986 4.51619 20.015 4.15237 19.6511C3.78855 19.2873 3.50495 18.8514 3.31981 18.3713C3.07489 17.7093 2.94529 17.0103 2.93666 16.3045C2.88366 15.1306 2.872 14.7787 2.872 11.8073C2.872 8.83584 2.88313 8.48395 2.93666 7.31011C2.94529 6.60433 3.07489 5.90526 3.31981 5.24329C3.50495 4.76323 3.78855 4.32727 4.15237 3.96345C4.51619 3.59963 4.95216 3.31603 5.43221 3.13089C6.09418 2.88597 6.79325 2.75637 7.49903 2.74773C8.67288 2.69474 9.02477 2.68308 11.9962 2.68308ZM11.9962 0.677734C8.97548 0.677734 8.59497 0.690453 7.40788 0.744509C6.48419 0.762881 5.57031 0.937772 4.70511 1.26174C3.96291 1.54138 3.29066 1.9796 2.73527 2.54582C2.16854 3.10141 1.72995 3.77404 1.45014 4.51672C1.12617 5.38192 0.951274 6.2958 0.932902 7.21948C0.879906 8.40552 0.867188 8.78603 0.867188 11.8068C0.867188 14.8275 0.879906 15.208 0.933962 16.3951C0.952334 17.3188 1.12723 18.2327 1.4512 19.0979C1.7307 19.8404 2.16892 20.5131 2.73527 21.0688C3.29097 21.6351 3.96359 22.0733 4.70617 22.3528C5.57137 22.6768 6.48525 22.8517 7.40894 22.8701C8.59603 22.9231 8.97495 22.9369 11.9973 22.9369C15.0196 22.9369 15.3985 22.9241 16.5856 22.8701C17.5093 22.8517 18.4232 22.6768 19.2884 22.3528C20.0274 22.0664 20.6986 21.6288 21.2589 21.0681C21.8192 20.5075 22.2563 19.8361 22.5423 19.0968C22.8663 18.2316 23.0412 17.3177 23.0595 16.394C23.1125 15.208 23.1252 14.8275 23.1252 11.8068C23.1252 8.78603 23.1125 8.40552 23.0585 7.21842C23.0401 6.29474 22.8652 5.38086 22.5412 4.51566C22.2617 3.77308 21.8235 3.10046 21.2572 2.54476C20.7015 1.97841 20.0288 1.54019 19.2863 1.26068C18.4211 0.936712 17.5072 0.761821 16.5835 0.743449C15.3975 0.690453 15.017 0.677734 11.9962 0.677734Z" fill="white"/>
<path d="M12.0002 6.0918C10.8699 6.0918 9.76491 6.42698 8.82508 7.05495C7.88525 7.68293 7.15275 8.57549 6.72019 9.61977C6.28763 10.6641 6.17446 11.8132 6.39497 12.9218C6.61549 14.0304 7.15979 15.0487 7.95905 15.8479C8.75831 16.6472 9.77663 17.1915 10.8852 17.412C11.9938 17.6325 13.1429 17.5194 14.1872 17.0868C15.2315 16.6543 16.1241 15.9217 16.752 14.9819C17.38 14.0421 17.7152 12.9371 17.7152 11.8068C17.7152 10.2911 17.1131 8.83746 16.0413 7.76569C14.9695 6.69391 13.5159 6.0918 12.0002 6.0918ZM12.0002 15.5165C11.2665 15.5165 10.5492 15.2989 9.93919 14.8913C9.32914 14.4837 8.85366 13.9043 8.57289 13.2264C8.29211 12.5486 8.21865 11.8027 8.36178 11.0831C8.50492 10.3635 8.85824 9.70249 9.37704 9.18368C9.89585 8.66487 10.5569 8.31156 11.2765 8.16842C11.9961 8.02528 12.742 8.09875 13.4198 8.37952C14.0977 8.6603 14.677 9.13578 15.0847 9.74583C15.4923 10.3559 15.7099 11.0731 15.7099 11.8068C15.7099 12.7907 15.319 13.7343 14.6233 14.43C13.9276 15.1257 12.984 15.5165 12.0002 15.5165Z" fill="white"/>
<path d="M17.937 7.20124C18.6746 7.20124 19.2725 6.60332 19.2725 5.86576C19.2725 5.12819 18.6746 4.53027 17.937 4.53027C17.1995 4.53027 16.6016 5.12819 16.6016 5.86576C16.6016 6.60332 17.1995 7.20124 17.937 7.20124Z" fill="white"/>
</svg>
