<svg width="22" height="22" viewBox="0 0 22 22" fill="none" xmlns="http://www.w3.org/2000/svg">
<path fill-rule="evenodd" clip-rule="evenodd" d="M11.001 0.677734C5.10161 0.677734 0.355469 5.42387 0.355469 11.3233C0.355469 16.0251 3.41606 20.0171 7.62992 21.4365C8.1622 21.5253 8.33962 21.2148 8.33962 20.9043C8.33962 20.6381 8.33962 19.9728 8.33962 19.0856C5.36774 19.751 4.74675 17.6662 4.74675 17.6662C4.25883 16.4243 3.54913 16.1138 3.54913 16.1138C2.57329 15.4484 3.63784 15.4484 3.63784 15.4484C4.7024 15.5371 5.27903 16.5573 5.27903 16.5573C6.21052 18.1985 7.76299 17.7106 8.38398 17.4445C8.47269 16.7348 8.73883 16.2912 9.04933 16.0251C6.69844 15.7589 4.21448 14.8274 4.21448 10.7466C4.21448 9.59337 4.61368 8.61753 5.32339 7.90783C5.23467 7.64169 4.83547 6.57714 5.4121 5.06902C5.4121 5.06902 6.29923 4.80288 8.33962 6.17793C9.1824 5.95615 10.1139 5.82308 11.001 5.82308C11.8881 5.82308 12.8196 5.95615 13.6624 6.17793C15.7028 4.80288 16.5899 5.06902 16.5899 5.06902C17.1665 6.53278 16.8117 7.59734 16.6786 7.90783C17.344 8.66189 17.7875 9.59337 17.7875 10.7466C17.7875 14.8274 15.3036 15.7146 12.9083 15.9807C13.3075 16.2912 13.618 16.9565 13.618 17.9324C13.618 19.3518 13.618 20.5051 13.618 20.8599C13.618 21.126 13.7955 21.4809 14.3721 21.3922C18.586 20.0171 21.6465 16.0251 21.6465 11.3233C21.6465 5.42387 16.9004 0.677734 11.001 0.677734Z" fill="white"/>
</svg>
