<svg width="20" height="15" viewBox="0 0 20 15" fill="none" xmlns="http://www.w3.org/2000/svg">
<path d="M19.2009 1.84989C18.5125 2.15584 17.7859 2.34706 17.021 2.4618C17.7859 2.00287 18.3978 1.27623 18.6655 0.396615C17.9389 0.8173 17.1357 1.12325 16.2561 1.31447C15.5677 0.587835 14.5734 0.128906 13.5025 0.128906C11.4374 0.128906 9.75462 1.81165 9.75462 3.87683C9.75462 4.18278 9.79287 4.45049 9.86935 4.7182C6.77158 4.56522 3.97976 3.0737 2.1058 0.779056C1.79985 1.35272 1.60863 1.96462 1.60863 2.65302C1.60863 3.95332 2.25878 5.10064 3.29137 5.78903C2.67947 5.75079 2.1058 5.59781 1.57039 5.3301V5.36835C1.57039 7.20406 2.87069 8.73383 4.59167 9.07802C4.28572 9.15451 3.94152 9.19275 3.59732 9.19275C3.36786 9.19275 3.10015 9.15451 2.87069 9.11627C3.36786 10.6078 4.74465 11.7169 6.38914 11.7169C5.08884 12.7112 3.48259 13.3231 1.72336 13.3231C1.41741 13.3231 1.11146 13.3231 0.84375 13.2849C2.52649 14.3557 4.47694 14.9676 6.61861 14.9676C13.5408 14.9676 17.327 9.231 17.327 4.25927C17.327 4.10629 17.327 3.91507 17.327 3.76209C18.0536 3.26492 18.7037 2.61477 19.2009 1.84989Z" fill="white"/>
</svg>
